<?xml version="1.0" encoding="utf-8" standalone="no"?>
<!DOCTYPE svg PUBLIC "-//W3C//DTD SVG 1.1//EN"
  "http://www.w3.org/Graphics/SVG/1.1/DTD/svg11.dtd">
<svg xmlns:xlink="http://www.w3.org/1999/xlink" width="1008pt" height="259.2pt" viewBox="0 0 1008 259.2" xmlns="http://www.w3.org/2000/svg" version="1.1">
 <metadata>
  <rdf:RDF xmlns:dc="http://purl.org/dc/elements/1.1/" xmlns:cc="http://creativecommons.org/ns#" xmlns:rdf="http://www.w3.org/1999/02/22-rdf-syntax-ns#">
   <cc:Work>
    <dc:type rdf:resource="http://purl.org/dc/dcmitype/StillImage"/>
    <dc:date>2026-05-14T12:30:16.667112</dc:date>
    <dc:format>image/svg+xml</dc:format>
    <dc:creator>
     <cc:Agent>
      <dc:title>Matplotlib v3.10.7+dfsg1, https://matplotlib.org/</dc:title>
     </cc:Agent>
    </dc:creator>
   </cc:Work>
  </rdf:RDF>
 </metadata>
 <defs>
  <style type="text/css">*{stroke-linejoin: round; stroke-linecap: butt}</style>
 </defs>
 <g id="figure_1">
  <g id="patch_1">
   <path d="M 0 259.2 
L 1008 259.2 
L 1008 0 
L 0 0 
z
" style="fill: #ffffff"/>
  </g>
  <g id="axes_1">
   <g id="patch_2">
    <path d="M 102.71 187.72 
L 861.948 187.72 
L 861.948 57.6 
L 102.71 57.6 
z
" style="fill: #ffffff"/>
   </g>
   <g id="matplotlib.axis_1">
    <g id="xtick_1">
     <g id="line2d_1">
      <path d="M 120.787095 187.72 
L 120.787095 57.6 
" clip-path="url(#p8c6352e137)" style="fill: none; stroke-dasharray: 2.96,1.28; stroke-dashoffset: 0; stroke: #b0b0b0; stroke-opacity: 0.3; stroke-width: 0.8"/>
     </g>
     <g id="line2d_2">
      <defs>
       <path id="mc933aa49a0" d="M 0 0 
L 0 3.5 
" style="stroke: #000000; stroke-width: 0.8"/>
      </defs>
      <g>
       <use xlink:href="#mc933aa49a0" x="120.787095" y="187.72" style="stroke: #000000; stroke-width: 0.8"/>
      </g>
     </g>
     <g id="text_1">
      <!-- 0 -->
      <g transform="translate(115.792095 209.046875) scale(0.18 -0.18)">
       <defs>
        <path id="NotoSansCJKjp-Regular-30" d="M 1779 -83 
C 2669 -83 3238 723 3238 2362 
C 3238 3987 2669 4774 1779 4774 
C 883 4774 320 3987 320 2362 
C 320 723 883 -83 1779 -83 
z
M 1779 390 
C 1248 390 883 986 883 2362 
C 883 3731 1248 4314 1779 4314 
C 2310 4314 2675 3731 2675 2362 
C 2675 986 2310 390 1779 390 
z
" transform="scale(0.015625)"/>
       </defs>
       <use xlink:href="#NotoSansCJKjp-Regular-30"/>
      </g>
     </g>
    </g>
    <g id="xtick_2">
     <g id="line2d_3">
      <path d="M 193.095476 187.72 
L 193.095476 57.6 
" clip-path="url(#p8c6352e137)" style="fill: none; stroke-dasharray: 2.96,1.28; stroke-dashoffset: 0; stroke: #b0b0b0; stroke-opacity: 0.3; stroke-width: 0.8"/>
     </g>
     <g id="line2d_4">
      <g>
       <use xlink:href="#mc933aa49a0" x="193.095476" y="187.72" style="stroke: #000000; stroke-width: 0.8"/>
      </g>
     </g>
     <g id="text_2">
      <!-- 2 -->
      <g transform="translate(188.100476 209.046875) scale(0.18 -0.18)">
       <defs>
        <path id="NotoSansCJKjp-Regular-32" d="M 282 0 
L 3232 0 
L 3232 506 
L 1933 506 
C 1696 506 1408 480 1165 461 
C 2266 1504 3008 2458 3008 3398 
C 3008 4230 2477 4774 1638 4774 
C 1043 4774 634 4506 256 4090 
L 595 3757 
C 858 4070 1184 4301 1568 4301 
C 2150 4301 2432 3910 2432 3373 
C 2432 2566 1754 1632 282 346 
L 282 0 
z
" transform="scale(0.015625)"/>
       </defs>
       <use xlink:href="#NotoSansCJKjp-Regular-32"/>
      </g>
     </g>
    </g>
    <g id="xtick_3">
     <g id="line2d_5">
      <path d="M 265.403857 187.72 
L 265.403857 57.6 
" clip-path="url(#p8c6352e137)" style="fill: none; stroke-dasharray: 2.96,1.28; stroke-dashoffset: 0; stroke: #b0b0b0; stroke-opacity: 0.3; stroke-width: 0.8"/>
     </g>
     <g id="line2d_6">
      <g>
       <use xlink:href="#mc933aa49a0" x="265.403857" y="187.72" style="stroke: #000000; stroke-width: 0.8"/>
      </g>
     </g>
     <g id="text_3">
      <!-- 4 -->
      <g transform="translate(260.408857 209.046875) scale(0.18 -0.18)">
       <defs>
        <path id="NotoSansCJKjp-Regular-34" d="M 2176 0 
L 2726 0 
L 2726 1293 
L 3354 1293 
L 3354 1760 
L 2726 1760 
L 2726 4691 
L 2080 4691 
L 128 1677 
L 128 1293 
L 2176 1293 
L 2176 0 
z
M 2176 1760 
L 736 1760 
L 1805 3360 
C 1939 3590 2067 3827 2182 4051 
L 2208 4051 
C 2195 3814 2176 3430 2176 3200 
L 2176 1760 
z
" transform="scale(0.015625)"/>
       </defs>
       <use xlink:href="#NotoSansCJKjp-Regular-34"/>
      </g>
     </g>
    </g>
    <g id="xtick_4">
     <g id="line2d_7">
      <path d="M 337.712238 187.72 
L 337.712238 57.6 
" clip-path="url(#p8c6352e137)" style="fill: none; stroke-dasharray: 2.96,1.28; stroke-dashoffset: 0; stroke: #b0b0b0; stroke-opacity: 0.3; stroke-width: 0.8"/>
     </g>
     <g id="line2d_8">
      <g>
       <use xlink:href="#mc933aa49a0" x="337.712238" y="187.72" style="stroke: #000000; stroke-width: 0.8"/>
      </g>
     </g>
     <g id="text_4">
      <!-- 6 -->
      <g transform="translate(332.717238 209.046875) scale(0.18 -0.18)">
       <defs>
        <path id="NotoSansCJKjp-Regular-36" d="M 1926 -83 
C 2656 -83 3277 531 3277 1440 
C 3277 2426 2765 2912 1971 2912 
C 1606 2912 1197 2701 909 2349 
C 934 3802 1466 4294 2118 4294 
C 2400 4294 2682 4154 2861 3936 
L 3194 4294 
C 2931 4576 2579 4774 2093 4774 
C 1184 4774 358 4077 358 2240 
C 358 691 1030 -83 1926 -83 
z
M 922 1882 
C 1229 2317 1587 2477 1875 2477 
C 2445 2477 2720 2074 2720 1440 
C 2720 800 2374 378 1926 378 
C 1338 378 986 909 922 1882 
z
" transform="scale(0.015625)"/>
       </defs>
       <use xlink:href="#NotoSansCJKjp-Regular-36"/>
      </g>
     </g>
    </g>
    <g id="xtick_5">
     <g id="line2d_9">
      <path d="M 410.020619 187.72 
L 410.020619 57.6 
" clip-path="url(#p8c6352e137)" style="fill: none; stroke-dasharray: 2.96,1.28; stroke-dashoffset: 0; stroke: #b0b0b0; stroke-opacity: 0.3; stroke-width: 0.8"/>
     </g>
     <g id="line2d_10">
      <g>
       <use xlink:href="#mc933aa49a0" x="410.020619" y="187.72" style="stroke: #000000; stroke-width: 0.8"/>
      </g>
     </g>
     <g id="text_5">
      <!-- 8 -->
      <g transform="translate(405.025619 209.046875) scale(0.18 -0.18)">
       <defs>
        <path id="NotoSansCJKjp-Regular-38" d="M 1792 -83 
C 2669 -83 3258 448 3258 1126 
C 3258 1773 2880 2125 2470 2362 
L 2470 2394 
C 2746 2611 3091 3034 3091 3526 
C 3091 4250 2605 4762 1805 4762 
C 1075 4762 518 4282 518 3571 
C 518 3078 813 2726 1152 2490 
L 1152 2464 
C 723 2234 294 1792 294 1165 
C 294 442 922 -83 1792 -83 
z
M 2112 2547 
C 1555 2765 1050 3014 1050 3571 
C 1050 4026 1363 4326 1798 4326 
C 2298 4326 2592 3962 2592 3494 
C 2592 3149 2426 2829 2112 2547 
z
M 1798 352 
C 1235 352 813 717 813 1216 
C 813 1664 1082 2035 1459 2278 
C 2125 2010 2701 1779 2701 1146 
C 2701 678 2342 352 1798 352 
z
" transform="scale(0.015625)"/>
       </defs>
       <use xlink:href="#NotoSansCJKjp-Regular-38"/>
      </g>
     </g>
    </g>
    <g id="xtick_6">
     <g id="line2d_11">
      <path d="M 482.329 187.72 
L 482.329 57.6 
" clip-path="url(#p8c6352e137)" style="fill: none; stroke-dasharray: 2.96,1.28; stroke-dashoffset: 0; stroke: #b0b0b0; stroke-opacity: 0.3; stroke-width: 0.8"/>
     </g>
     <g id="line2d_12">
      <g>
       <use xlink:href="#mc933aa49a0" x="482.329" y="187.72" style="stroke: #000000; stroke-width: 0.8"/>
      </g>
     </g>
     <g id="text_6">
      <!-- 10 -->
      <g transform="translate(472.339 209.046875) scale(0.18 -0.18)">
       <defs>
        <path id="NotoSansCJKjp-Regular-31" d="M 563 0 
L 3136 0 
L 3136 486 
L 2195 486 
L 2195 4691 
L 1747 4691 
C 1491 4544 1190 4435 774 4358 
L 774 3987 
L 1613 3987 
L 1613 486 
L 563 486 
L 563 0 
z
" transform="scale(0.015625)"/>
       </defs>
       <use xlink:href="#NotoSansCJKjp-Regular-31"/>
       <use xlink:href="#NotoSansCJKjp-Regular-30" transform="translate(55.499985 0)"/>
      </g>
     </g>
    </g>
    <g id="xtick_7">
     <g id="line2d_13">
      <path d="M 554.637381 187.72 
L 554.637381 57.6 
" clip-path="url(#p8c6352e137)" style="fill: none; stroke-dasharray: 2.96,1.28; stroke-dashoffset: 0; stroke: #b0b0b0; stroke-opacity: 0.3; stroke-width: 0.8"/>
     </g>
     <g id="line2d_14">
      <g>
       <use xlink:href="#mc933aa49a0" x="554.637381" y="187.72" style="stroke: #000000; stroke-width: 0.8"/>
      </g>
     </g>
     <g id="text_7">
      <!-- 12 -->
      <g transform="translate(544.647381 209.046875) scale(0.18 -0.18)">
       <use xlink:href="#NotoSansCJKjp-Regular-31"/>
       <use xlink:href="#NotoSansCJKjp-Regular-32" transform="translate(55.499985 0)"/>
      </g>
     </g>
    </g>
    <g id="xtick_8">
     <g id="line2d_15">
      <path d="M 626.945762 187.72 
L 626.945762 57.6 
" clip-path="url(#p8c6352e137)" style="fill: none; stroke-dasharray: 2.96,1.28; stroke-dashoffset: 0; stroke: #b0b0b0; stroke-opacity: 0.3; stroke-width: 0.8"/>
     </g>
     <g id="line2d_16">
      <g>
       <use xlink:href="#mc933aa49a0" x="626.945762" y="187.72" style="stroke: #000000; stroke-width: 0.8"/>
      </g>
     </g>
     <g id="text_8">
      <!-- 14 -->
      <g transform="translate(616.955762 209.046875) scale(0.18 -0.18)">
       <use xlink:href="#NotoSansCJKjp-Regular-31"/>
       <use xlink:href="#NotoSansCJKjp-Regular-34" transform="translate(55.499985 0)"/>
      </g>
     </g>
    </g>
    <g id="xtick_9">
     <g id="line2d_17">
      <path d="M 699.254143 187.72 
L 699.254143 57.6 
" clip-path="url(#p8c6352e137)" style="fill: none; stroke-dasharray: 2.96,1.28; stroke-dashoffset: 0; stroke: #b0b0b0; stroke-opacity: 0.3; stroke-width: 0.8"/>
     </g>
     <g id="line2d_18">
      <g>
       <use xlink:href="#mc933aa49a0" x="699.254143" y="187.72" style="stroke: #000000; stroke-width: 0.8"/>
      </g>
     </g>
     <g id="text_9">
      <!-- 16 -->
      <g transform="translate(689.264143 209.046875) scale(0.18 -0.18)">
       <use xlink:href="#NotoSansCJKjp-Regular-31"/>
       <use xlink:href="#NotoSansCJKjp-Regular-36" transform="translate(55.499985 0)"/>
      </g>
     </g>
    </g>
    <g id="xtick_10">
     <g id="line2d_19">
      <path d="M 771.562524 187.72 
L 771.562524 57.6 
" clip-path="url(#p8c6352e137)" style="fill: none; stroke-dasharray: 2.96,1.28; stroke-dashoffset: 0; stroke: #b0b0b0; stroke-opacity: 0.3; stroke-width: 0.8"/>
     </g>
     <g id="line2d_20">
      <g>
       <use xlink:href="#mc933aa49a0" x="771.562524" y="187.72" style="stroke: #000000; stroke-width: 0.8"/>
      </g>
     </g>
     <g id="text_10">
      <!-- 18 -->
      <g transform="translate(761.572524 209.046875) scale(0.18 -0.18)">
       <use xlink:href="#NotoSansCJKjp-Regular-31"/>
       <use xlink:href="#NotoSansCJKjp-Regular-38" transform="translate(55.499985 0)"/>
      </g>
     </g>
    </g>
    <g id="xtick_11">
     <g id="line2d_21">
      <path d="M 843.870905 187.72 
L 843.870905 57.6 
" clip-path="url(#p8c6352e137)" style="fill: none; stroke-dasharray: 2.96,1.28; stroke-dashoffset: 0; stroke: #b0b0b0; stroke-opacity: 0.3; stroke-width: 0.8"/>
     </g>
     <g id="line2d_22">
      <g>
       <use xlink:href="#mc933aa49a0" x="843.870905" y="187.72" style="stroke: #000000; stroke-width: 0.8"/>
      </g>
     </g>
     <g id="text_11">
      <!-- 20 -->
      <g transform="translate(833.880905 209.046875) scale(0.18 -0.18)">
       <use xlink:href="#NotoSansCJKjp-Regular-32"/>
       <use xlink:href="#NotoSansCJKjp-Regular-30" transform="translate(55.499985 0)"/>
      </g>
     </g>
    </g>
    <g id="text_12">
     <!-- 迭代次数 -->
     <g transform="translate(438.329 234.680625) scale(0.22 -0.22)">
      <defs>
       <path id="NotoSansCJKjp-Regular-8fed" d="M 384 4934 
C 794 4646 1274 4218 1478 3904 
L 1862 4224 
C 1638 4531 1158 4947 730 5222 
L 384 4934 
z
M 3789 5376 
L 3789 4378 
L 3078 4378 
C 3155 4614 3219 4858 3270 5107 
L 2797 5197 
C 2650 4480 2400 3770 2048 3302 
C 2176 3251 2394 3142 2496 3085 
C 2656 3315 2797 3610 2925 3936 
L 3789 3936 
L 3789 3597 
C 3789 3392 3782 3174 3757 2950 
L 1990 2950 
L 1990 2509 
L 3674 2509 
C 3507 1882 3091 1261 2074 813 
C 2176 730 2330 557 2387 448 
C 3354 922 3834 1549 4058 2202 
C 4403 1376 4960 774 5766 454 
C 5837 582 5978 768 6093 864 
C 5280 1133 4710 1722 4410 2509 
L 6074 2509 
L 6074 2950 
L 4230 2950 
C 4256 3168 4262 3386 4262 3597 
L 4262 3936 
L 5754 3936 
L 5754 4378 
L 4262 4378 
L 4262 5376 
L 3789 5376 
z
M 1677 2848 
L 314 2848 
L 314 2400 
L 1210 2400 
L 1210 768 
C 890 499 518 230 230 32 
L 480 -461 
C 826 -173 1152 102 1459 378 
C 1869 -128 2445 -358 3283 -390 
C 3994 -416 5318 -403 6016 -371 
C 6035 -224 6118 6 6176 115 
C 5414 64 3981 45 3283 77 
C 2541 102 1978 326 1677 794 
L 1677 2848 
z
" transform="scale(0.015625)"/>
       <path id="NotoSansCJKjp-Regular-4ee3" d="M 4576 5011 
C 4954 4691 5402 4243 5613 3955 
L 5984 4211 
C 5766 4499 5306 4934 4922 5242 
L 4576 5011 
z
M 3507 5286 
C 3533 4608 3578 3968 3635 3379 
L 2074 3181 
L 2144 2726 
L 3686 2918 
C 3930 909 4442 -429 5504 -506 
C 5843 -525 6099 -192 6240 915 
C 6144 960 5933 1075 5837 1171 
C 5773 429 5670 51 5485 58 
C 4800 128 4378 1280 4160 2982 
L 6112 3226 
L 6042 3680 
L 4109 3437 
C 4045 4006 4006 4634 3987 5286 
L 3507 5286 
z
M 2003 5312 
C 1581 4294 870 3315 134 2688 
C 218 2579 365 2336 416 2227 
C 710 2490 998 2810 1274 3162 
L 1274 -499 
L 1766 -499 
L 1766 3866 
C 2029 4275 2266 4717 2458 5165 
L 2003 5312 
z
" transform="scale(0.015625)"/>
       <path id="NotoSansCJKjp-Regular-6b21" d="M 243 806 
L 557 410 
C 986 826 1530 1382 2003 1901 
L 1734 2310 
C 1197 1741 614 1158 243 806 
z
M 448 4602 
C 858 4314 1363 3891 1606 3610 
L 1965 4006 
C 1715 4282 1197 4685 787 4947 
L 448 4602 
z
M 2854 5363 
C 2630 4339 2240 3334 1696 2707 
C 1824 2650 2054 2515 2157 2438 
C 2426 2797 2662 3245 2874 3750 
L 3654 3750 
L 3654 2931 
C 3654 2330 3322 653 1370 -115 
C 1459 -211 1606 -403 1664 -512 
C 3206 141 3795 1427 3904 2029 
C 4000 1434 4544 102 5894 -512 
C 5965 -397 6112 -198 6208 -83 
C 4461 672 4147 2368 4154 2931 
L 4154 3750 
L 5485 3750 
C 5350 3322 5152 2848 4986 2547 
C 5101 2502 5286 2400 5389 2349 
C 5626 2778 5926 3443 6099 4058 
L 5747 4250 
L 5651 4224 
L 3053 4224 
C 3168 4557 3270 4915 3354 5274 
L 2854 5363 
z
" transform="scale(0.015625)"/>
       <path id="NotoSansCJKjp-Regular-6570" d="M 2803 5254 
C 2688 4998 2483 4627 2317 4403 
L 2643 4243 
C 2816 4454 3027 4781 3219 5075 
L 2803 5254 
z
M 531 5075 
C 704 4806 870 4454 928 4230 
L 1312 4397 
C 1248 4627 1075 4973 890 5222 
L 531 5075 
z
M 4026 5382 
C 3846 4243 3507 3162 2970 2490 
C 3078 2413 3283 2246 3360 2163 
C 3533 2394 3693 2669 3827 2970 
C 3974 2310 4160 1709 4410 1184 
C 4090 698 3667 314 3110 19 
C 2912 166 2656 326 2374 480 
C 2598 774 2746 1126 2829 1562 
L 3398 1562 
L 3398 1958 
L 1677 1958 
L 1894 2413 
L 1779 2438 
L 2061 2438 
L 2061 3398 
C 2374 3168 2771 2854 2938 2701 
L 3206 3046 
C 3034 3174 2336 3616 2061 3776 
L 2061 3802 
L 3373 3802 
L 3373 4198 
L 2061 4198 
L 2061 5382 
L 1613 5382 
L 1613 4198 
L 288 4198 
L 288 3802 
L 1485 3802 
C 1171 3379 678 2982 218 2784 
C 314 2694 422 2528 480 2419 
C 870 2637 1293 2989 1613 3373 
L 1613 2477 
L 1440 2515 
L 1178 1958 
L 250 1958 
L 250 1562 
L 979 1562 
C 806 1222 627 896 486 653 
L 909 506 
L 1005 678 
C 1222 589 1434 493 1638 384 
C 1306 147 858 -13 269 -109 
C 352 -211 448 -384 480 -512 
C 1171 -365 1683 -154 2061 160 
C 2355 -13 2611 -186 2810 -352 
L 2963 -192 
C 3046 -301 3136 -448 3174 -531 
C 3802 -205 4288 205 4666 710 
C 4979 192 5370 -224 5862 -512 
C 5939 -378 6093 -192 6208 -96 
C 5690 173 5280 614 4960 1165 
C 5350 1856 5594 2707 5754 3750 
L 6144 3750 
L 6144 4198 
L 4262 4198 
C 4358 4557 4442 4928 4506 5312 
L 4026 5382 
z
M 1478 1562 
L 2368 1562 
C 2285 1216 2157 928 1965 698 
C 1715 819 1459 934 1197 1030 
L 1478 1562 
z
M 4134 3750 
L 5254 3750 
C 5139 2950 4966 2266 4698 1696 
C 4435 2298 4250 3002 4134 3750 
z
" transform="scale(0.015625)"/>
      </defs>
      <use xlink:href="#NotoSansCJKjp-Regular-8fed"/>
      <use xlink:href="#NotoSansCJKjp-Regular-4ee3" transform="translate(99.999985 0)"/>
      <use xlink:href="#NotoSansCJKjp-Regular-6b21" transform="translate(199.999969 0)"/>
      <use xlink:href="#NotoSansCJKjp-Regular-6570" transform="translate(299.999954 0)"/>
     </g>
    </g>
   </g>
   <g id="matplotlib.axis_2">
    <g id="ytick_1">
     <g id="line2d_23">
      <path d="M 102.71 169.040869 
L 861.948 169.040869 
" clip-path="url(#p8c6352e137)" style="fill: none; stroke-dasharray: 2.96,1.28; stroke-dashoffset: 0; stroke: #b0b0b0; stroke-opacity: 0.3; stroke-width: 0.8"/>
     </g>
     <g id="line2d_24">
      <defs>
       <path id="mca97f7f354" d="M 0 0 
L -3.5 0 
" style="stroke: #000000; stroke-width: 0.8"/>
      </defs>
      <g>
       <use xlink:href="#mca97f7f354" x="102.71" y="169.040869" style="stroke: #000000; stroke-width: 0.8"/>
      </g>
     </g>
     <g id="text_13">
      <!-- 10250 -->
      <g transform="translate(45.76 176.204307) scale(0.18 -0.18)">
       <defs>
        <path id="NotoSansCJKjp-Regular-35" d="M 1677 -83 
C 2464 -83 3213 499 3213 1523 
C 3213 2560 2573 3021 1798 3021 
C 1517 3021 1306 2950 1094 2835 
L 1216 4192 
L 2982 4192 
L 2982 4691 
L 704 4691 
L 550 2502 
L 864 2304 
C 1133 2483 1331 2579 1645 2579 
C 2234 2579 2618 2182 2618 1510 
C 2618 826 2176 403 1619 403 
C 1075 403 730 653 467 922 
L 173 538 
C 493 224 941 -83 1677 -83 
z
" transform="scale(0.015625)"/>
       </defs>
       <use xlink:href="#NotoSansCJKjp-Regular-31"/>
       <use xlink:href="#NotoSansCJKjp-Regular-30" transform="translate(55.499985 0)"/>
       <use xlink:href="#NotoSansCJKjp-Regular-32" transform="translate(110.999969 0)"/>
       <use xlink:href="#NotoSansCJKjp-Regular-35" transform="translate(166.499954 0)"/>
       <use xlink:href="#NotoSansCJKjp-Regular-30" transform="translate(221.999939 0)"/>
      </g>
     </g>
    </g>
    <g id="ytick_2">
     <g id="line2d_25">
      <path d="M 102.71 120.240682 
L 861.948 120.240682 
" clip-path="url(#p8c6352e137)" style="fill: none; stroke-dasharray: 2.96,1.28; stroke-dashoffset: 0; stroke: #b0b0b0; stroke-opacity: 0.3; stroke-width: 0.8"/>
     </g>
     <g id="line2d_26">
      <g>
       <use xlink:href="#mca97f7f354" x="102.71" y="120.240682" style="stroke: #000000; stroke-width: 0.8"/>
      </g>
     </g>
     <g id="text_14">
      <!-- 10500 -->
      <g transform="translate(45.76 127.404119) scale(0.18 -0.18)">
       <use xlink:href="#NotoSansCJKjp-Regular-31"/>
       <use xlink:href="#NotoSansCJKjp-Regular-30" transform="translate(55.499985 0)"/>
       <use xlink:href="#NotoSansCJKjp-Regular-35" transform="translate(110.999969 0)"/>
       <use xlink:href="#NotoSansCJKjp-Regular-30" transform="translate(166.499954 0)"/>
       <use xlink:href="#NotoSansCJKjp-Regular-30" transform="translate(221.999939 0)"/>
      </g>
     </g>
    </g>
    <g id="ytick_3">
     <g id="line2d_27">
      <path d="M 102.71 71.440494 
L 861.948 71.440494 
" clip-path="url(#p8c6352e137)" style="fill: none; stroke-dasharray: 2.96,1.28; stroke-dashoffset: 0; stroke: #b0b0b0; stroke-opacity: 0.3; stroke-width: 0.8"/>
     </g>
     <g id="line2d_28">
      <g>
       <use xlink:href="#mca97f7f354" x="102.71" y="71.440494" style="stroke: #000000; stroke-width: 0.8"/>
      </g>
     </g>
     <g id="text_15">
      <!-- 10750 -->
      <g transform="translate(45.76 78.603932) scale(0.18 -0.18)">
       <defs>
        <path id="NotoSansCJKjp-Regular-37" d="M 1267 0 
L 1875 0 
C 1952 1837 2150 2931 3251 4339 
L 3251 4691 
L 314 4691 
L 314 4192 
L 2592 4192 
C 1670 2912 1350 1779 1267 0 
z
" transform="scale(0.015625)"/>
       </defs>
       <use xlink:href="#NotoSansCJKjp-Regular-31"/>
       <use xlink:href="#NotoSansCJKjp-Regular-30" transform="translate(55.499985 0)"/>
       <use xlink:href="#NotoSansCJKjp-Regular-37" transform="translate(110.999969 0)"/>
       <use xlink:href="#NotoSansCJKjp-Regular-35" transform="translate(166.499954 0)"/>
       <use xlink:href="#NotoSansCJKjp-Regular-30" transform="translate(221.999939 0)"/>
      </g>
     </g>
    </g>
    <g id="text_16">
     <!-- 总线长 -->
     <g transform="translate(36.720625 155.66) rotate(-90) scale(0.22 -0.22)">
      <defs>
       <path id="NotoSansCJKjp-Regular-603b" d="M 4858 1370 
C 5222 928 5600 333 5741 -64 
L 6131 179 
C 5990 582 5600 1152 5222 1581 
L 4858 1370 
z
M 2637 1722 
C 3059 1434 3546 979 3782 666 
L 4141 973 
C 3898 1274 3405 1709 2976 1990 
L 2637 1722 
z
M 1798 1542 
L 1798 218 
C 1798 -301 1997 -442 2758 -442 
C 2912 -442 4032 -442 4198 -442 
C 4787 -442 4947 -262 5018 474 
C 4877 499 4672 576 4563 646 
C 4525 83 4480 -6 4160 -6 
C 3910 -6 2970 -6 2784 -6 
C 2374 -6 2304 32 2304 224 
L 2304 1542 
L 1798 1542 
z
M 877 1440 
C 762 947 538 384 275 58 
L 717 -154 
C 1005 230 1216 832 1331 1357 
L 877 1440 
z
M 1696 3629 
L 4717 3629 
L 4717 2502 
L 1696 2502 
L 1696 3629 
z
M 1190 4083 
L 1190 2042 
L 5248 2042 
L 5248 4083 
L 4205 4083 
C 4429 4410 4666 4806 4870 5171 
L 4378 5370 
C 4211 4986 3930 4454 3680 4083 
L 2368 4083 
L 2746 4275 
C 2630 4576 2336 5018 2054 5350 
L 1645 5158 
C 1914 4832 2182 4384 2291 4083 
L 1190 4083 
z
" transform="scale(0.015625)"/>
       <path id="NotoSansCJKjp-Regular-7ebf" d="M 346 346 
L 448 -115 
C 1037 64 1805 294 2547 512 
L 2477 922 
C 1690 698 877 474 346 346 
z
M 4506 4992 
C 4826 4838 5229 4589 5434 4410 
L 5715 4710 
C 5510 4883 5101 5120 4787 5261 
L 4506 4992 
z
M 461 2707 
C 550 2752 704 2790 1485 2893 
C 1203 2477 954 2157 832 2029 
C 634 1792 486 1632 346 1606 
C 403 1485 474 1261 499 1165 
C 634 1242 851 1306 2458 1632 
C 2445 1728 2445 1907 2458 2035 
L 1184 1805 
C 1670 2381 2157 3085 2566 3789 
L 2163 4032 
C 2042 3795 1901 3552 1760 3322 
L 947 3238 
C 1331 3782 1702 4474 1978 5146 
L 1530 5357 
C 1274 4589 806 3770 666 3558 
C 525 3341 416 3194 301 3162 
C 358 3034 435 2803 461 2707 
z
M 5677 2234 
C 5421 1830 5075 1459 4659 1139 
C 4557 1478 4467 1888 4403 2349 
L 6035 2656 
L 5958 3078 
L 4346 2778 
C 4314 3046 4282 3328 4262 3622 
L 5856 3866 
L 5779 4288 
L 4237 4058 
C 4218 4486 4211 4928 4211 5389 
L 3738 5389 
C 3744 4909 3757 4442 3782 3987 
L 2771 3840 
L 2848 3405 
L 3808 3552 
C 3827 3258 3859 2970 3891 2694 
L 2643 2464 
L 2720 2029 
L 3949 2259 
C 4026 1728 4128 1248 4262 851 
C 3718 486 3091 198 2438 0 
C 2554 -109 2675 -282 2739 -397 
C 3341 -186 3910 90 4422 422 
C 4685 -154 5030 -493 5485 -493 
C 5926 -493 6074 -282 6163 435 
C 6054 480 5901 582 5805 691 
C 5773 122 5709 -26 5536 -26 
C 5254 -26 5018 237 4819 704 
C 5325 1088 5760 1542 6080 2042 
L 5677 2234 
z
" transform="scale(0.015625)"/>
       <path id="NotoSansCJKjp-Regular-957f" d="M 4922 5235 
C 4365 4570 3430 3962 2528 3590 
C 2650 3501 2842 3309 2931 3200 
C 3795 3629 4768 4294 5402 5030 
L 4922 5235 
z
M 358 2874 
L 358 2394 
L 1587 2394 
L 1587 352 
C 1587 96 1440 0 1325 -45 
C 1402 -147 1491 -358 1523 -474 
C 1677 -378 1920 -301 3674 173 
C 3648 275 3629 480 3629 621 
L 2086 243 
L 2086 2394 
L 3091 2394 
C 3610 1069 4518 122 5850 -326 
C 5920 -179 6074 19 6189 128 
C 4960 480 4064 1293 3590 2394 
L 6042 2394 
L 6042 2874 
L 2086 2874 
L 2086 5344 
L 1587 5344 
L 1587 2874 
L 358 2874 
z
" transform="scale(0.015625)"/>
      </defs>
      <use xlink:href="#NotoSansCJKjp-Regular-603b"/>
      <use xlink:href="#NotoSansCJKjp-Regular-7ebf" transform="translate(99.999985 0)"/>
      <use xlink:href="#NotoSansCJKjp-Regular-957f" transform="translate(199.999969 0)"/>
     </g>
    </g>
   </g>
   <g id="line2d_29">
    <path d="M 120.787095 79.589735 
L 156.941286 120.625813 
L 193.095476 100.501006 
L 229.249667 123.04923 
L 265.403857 118.557271 
L 301.558048 110.608891 
L 337.712238 72.613846 
L 373.866429 167.590918 
L 410.020619 156.469355 
L 446.17481 159.593153 
L 482.329 170.175962 
L 518.48319 172.706154 
L 554.637381 169.939378 
L 590.791571 154.570638 
L 626.945762 167.02874 
L 663.099952 169.744958 
L 699.254143 162.03043 
L 735.408333 168.118155 
L 771.562524 151.437861 
L 807.716714 157.890807 
L 843.870905 154.425799 
" clip-path="url(#p8c6352e137)" style="fill: none; stroke: #e67e22; stroke-width: 4.8; stroke-linecap: square"/>
    <defs>
     <path id="m2bac95783a" d="M 0 2.9 
C 0.769089 2.9 1.506782 2.594438 2.05061 2.05061 
C 2.594438 1.506782 2.9 0.769089 2.9 0 
C 2.9 -0.769089 2.594438 -1.506782 2.05061 -2.05061 
C 1.506782 -2.594438 0.769089 -2.9 0 -2.9 
C -0.769089 -2.9 -1.506782 -2.594438 -2.05061 -2.05061 
C -2.594438 -1.506782 -2.9 -0.769089 -2.9 0 
C -2.9 0.769089 -2.594438 1.506782 -2.05061 2.05061 
C -1.506782 2.594438 -0.769089 2.9 0 2.9 
z
" style="stroke: #e67e22"/>
    </defs>
    <g clip-path="url(#p8c6352e137)">
     <use xlink:href="#m2bac95783a" x="120.787095" y="79.589735" style="fill: #e67e22; stroke: #e67e22"/>
     <use xlink:href="#m2bac95783a" x="156.941286" y="120.625813" style="fill: #e67e22; stroke: #e67e22"/>
     <use xlink:href="#m2bac95783a" x="193.095476" y="100.501006" style="fill: #e67e22; stroke: #e67e22"/>
     <use xlink:href="#m2bac95783a" x="229.249667" y="123.04923" style="fill: #e67e22; stroke: #e67e22"/>
     <use xlink:href="#m2bac95783a" x="265.403857" y="118.557271" style="fill: #e67e22; stroke: #e67e22"/>
     <use xlink:href="#m2bac95783a" x="301.558048" y="110.608891" style="fill: #e67e22; stroke: #e67e22"/>
     <use xlink:href="#m2bac95783a" x="337.712238" y="72.613846" style="fill: #e67e22; stroke: #e67e22"/>
     <use xlink:href="#m2bac95783a" x="373.866429" y="167.590918" style="fill: #e67e22; stroke: #e67e22"/>
     <use xlink:href="#m2bac95783a" x="410.020619" y="156.469355" style="fill: #e67e22; stroke: #e67e22"/>
     <use xlink:href="#m2bac95783a" x="446.17481" y="159.593153" style="fill: #e67e22; stroke: #e67e22"/>
     <use xlink:href="#m2bac95783a" x="482.329" y="170.175962" style="fill: #e67e22; stroke: #e67e22"/>
     <use xlink:href="#m2bac95783a" x="518.48319" y="172.706154" style="fill: #e67e22; stroke: #e67e22"/>
     <use xlink:href="#m2bac95783a" x="554.637381" y="169.939378" style="fill: #e67e22; stroke: #e67e22"/>
     <use xlink:href="#m2bac95783a" x="590.791571" y="154.570638" style="fill: #e67e22; stroke: #e67e22"/>
     <use xlink:href="#m2bac95783a" x="626.945762" y="167.02874" style="fill: #e67e22; stroke: #e67e22"/>
     <use xlink:href="#m2bac95783a" x="663.099952" y="169.744958" style="fill: #e67e22; stroke: #e67e22"/>
     <use xlink:href="#m2bac95783a" x="699.254143" y="162.03043" style="fill: #e67e22; stroke: #e67e22"/>
     <use xlink:href="#m2bac95783a" x="735.408333" y="168.118155" style="fill: #e67e22; stroke: #e67e22"/>
     <use xlink:href="#m2bac95783a" x="771.562524" y="151.437861" style="fill: #e67e22; stroke: #e67e22"/>
     <use xlink:href="#m2bac95783a" x="807.716714" y="157.890807" style="fill: #e67e22; stroke: #e67e22"/>
     <use xlink:href="#m2bac95783a" x="843.870905" y="154.425799" style="fill: #e67e22; stroke: #e67e22"/>
    </g>
   </g>
   <g id="patch_3">
    <path d="M 102.71 187.72 
L 102.71 57.6 
" style="fill: none; stroke: #000000; stroke-width: 0.8; stroke-linejoin: miter; stroke-linecap: square"/>
   </g>
   <g id="patch_4">
    <path d="M 861.948 187.72 
L 861.948 57.6 
" style="fill: none; stroke: #000000; stroke-width: 0.8; stroke-linejoin: miter; stroke-linecap: square"/>
   </g>
   <g id="patch_5">
    <path d="M 102.71 187.72 
L 861.948 187.72 
" style="fill: none; stroke: #000000; stroke-width: 0.8; stroke-linejoin: miter; stroke-linecap: square"/>
   </g>
   <g id="patch_6">
    <path d="M 102.71 57.6 
L 861.948 57.6 
" style="fill: none; stroke: #000000; stroke-width: 0.8; stroke-linejoin: miter; stroke-linecap: square"/>
   </g>
   <g id="text_17">
    <!-- 本轮迭代区间：1-20 -->
    <g style="fill: #444444" transform="translate(110.30238 77.713025) scale(0.22 -0.22)">
     <defs>
      <path id="NotoSansCJKjp-Regular-672c" d="M 2944 5370 
L 2944 4026 
L 416 4026 
L 416 3539 
L 2643 3539 
C 2099 2438 1171 1402 198 896 
C 307 800 461 621 544 499 
C 1478 1050 2355 2016 2944 3130 
L 2944 1171 
L 1690 1171 
L 1690 685 
L 2944 685 
L 2944 -512 
L 3450 -512 
L 3450 685 
L 4672 685 
L 4672 1171 
L 3450 1171 
L 3450 3123 
C 4026 2016 4896 1043 5856 512 
C 5939 646 6106 838 6221 934 
C 5210 1427 4288 2438 3744 3539 
L 5997 3539 
L 5997 4026 
L 3450 4026 
L 3450 5370 
L 2944 5370 
z
" transform="scale(0.015625)"/>
      <path id="NotoSansCJKjp-Regular-8f6e" d="M 4122 5389 
C 3846 4634 3270 3686 2394 3021 
C 2502 2944 2650 2778 2726 2669 
C 3424 3226 3936 3917 4294 4589 
C 4704 3859 5280 3142 5798 2720 
C 5882 2842 6035 3008 6150 3091 
C 5562 3507 4902 4314 4531 5062 
L 4627 5299 
L 4122 5389 
z
M 5229 2733 
C 4845 2426 4262 2048 3750 1760 
L 3750 3021 
L 3270 3021 
L 3270 371 
C 3270 -186 3437 -339 4064 -339 
C 4186 -339 5030 -339 5165 -339 
C 5722 -339 5856 -96 5914 787 
C 5779 819 5581 902 5472 979 
C 5446 230 5402 96 5133 96 
C 4954 96 4250 96 4109 96 
C 3802 96 3750 134 3750 371 
L 3750 1267 
C 4320 1542 5030 1965 5562 2330 
L 5229 2733 
z
M 506 2125 
C 557 2176 755 2214 966 2214 
L 1485 2214 
L 1485 1274 
L 256 1069 
L 358 602 
L 1485 819 
L 1485 -480 
L 1914 -480 
L 1914 909 
L 2688 1062 
L 2656 1485 
L 1914 1350 
L 1914 2214 
L 2554 2214 
L 2554 2650 
L 1914 2650 
L 1914 3642 
L 1485 3642 
L 1485 2650 
L 928 2650 
C 1101 3091 1274 3616 1421 4160 
L 2566 4160 
L 2566 4621 
L 1536 4621 
C 1594 4845 1638 5069 1677 5286 
L 1229 5376 
C 1197 5126 1152 4870 1094 4621 
L 301 4621 
L 301 4160 
L 992 4160 
C 858 3642 723 3213 659 3053 
C 557 2765 467 2560 365 2528 
C 416 2419 480 2214 506 2125 
z
" transform="scale(0.015625)"/>
      <path id="NotoSansCJKjp-Regular-533a" d="M 1734 3520 
C 2227 3206 2752 2829 3238 2438 
C 2707 1850 2106 1344 1472 960 
C 1581 877 1773 691 1856 589 
C 2470 1005 3072 1530 3610 2138 
C 4147 1677 4614 1216 4915 832 
L 5299 1197 
C 4979 1587 4480 2048 3917 2502 
C 4326 3008 4698 3558 5005 4141 
L 4538 4301 
C 4269 3770 3930 3264 3546 2797 
C 3066 3168 2547 3526 2074 3821 
L 1734 3520 
z
M 602 4986 
L 602 -525 
L 1082 -525 
L 1082 -154 
L 6093 -154 
L 6093 307 
L 1082 307 
L 1082 4518 
L 5946 4518 
L 5946 4986 
L 602 4986 
z
" transform="scale(0.015625)"/>
      <path id="NotoSansCJKjp-Regular-95f4" d="M 582 3936 
L 582 -512 
L 1075 -512 
L 1075 3936 
L 582 3936 
z
M 678 5062 
C 973 4781 1306 4378 1453 4122 
L 1850 4378 
C 1696 4646 1350 5024 1050 5293 
L 678 5062 
z
M 2426 1888 
L 3962 1888 
L 3962 1024 
L 2426 1024 
L 2426 1888 
z
M 2426 3142 
L 3962 3142 
L 3962 2291 
L 2426 2291 
L 2426 3142 
z
M 1990 3546 
L 1990 627 
L 4416 627 
L 4416 3546 
L 1990 3546 
z
M 2253 5018 
L 2253 4563 
L 5350 4563 
L 5350 70 
C 5350 -13 5325 -38 5242 -45 
C 5158 -45 4896 -51 4627 -38 
C 4691 -160 4755 -365 4781 -480 
C 5171 -480 5446 -480 5619 -403 
C 5786 -320 5843 -198 5843 70 
L 5843 5018 
L 2253 5018 
z
" transform="scale(0.015625)"/>
      <path id="NotoSansCJKjp-Regular-ff1a" d="M 3200 3482 
C 3456 3482 3686 3667 3686 3962 
C 3686 4256 3456 4442 3200 4442 
C 2944 4442 2714 4256 2714 3962 
C 2714 3667 2944 3482 3200 3482 
z
M 3200 346 
C 3456 346 3686 538 3686 826 
C 3686 1120 3456 1312 3200 1312 
C 2944 1312 2714 1120 2714 826 
C 2714 538 2944 346 3200 346 
z
" transform="scale(0.015625)"/>
      <path id="NotoSansCJKjp-Regular-2d" d="M 294 1568 
L 1933 1568 
L 1933 2016 
L 294 2016 
L 294 1568 
z
" transform="scale(0.015625)"/>
     </defs>
     <use xlink:href="#NotoSansCJKjp-Regular-672c"/>
     <use xlink:href="#NotoSansCJKjp-Regular-8f6e" transform="translate(99.999985 0)"/>
     <use xlink:href="#NotoSansCJKjp-Regular-8fed" transform="translate(199.999969 0)"/>
     <use xlink:href="#NotoSansCJKjp-Regular-4ee3" transform="translate(299.999954 0)"/>
     <use xlink:href="#NotoSansCJKjp-Regular-533a" transform="translate(399.999939 0)"/>
     <use xlink:href="#NotoSansCJKjp-Regular-95f4" transform="translate(499.999924 0)"/>
     <use xlink:href="#NotoSansCJKjp-Regular-ff1a" transform="translate(599.999908 0)"/>
     <use xlink:href="#NotoSansCJKjp-Regular-31" transform="translate(699.999893 0)"/>
     <use xlink:href="#NotoSansCJKjp-Regular-2d" transform="translate(755.499878 0)"/>
     <use xlink:href="#NotoSansCJKjp-Regular-32" transform="translate(790.199875 0)"/>
     <use xlink:href="#NotoSansCJKjp-Regular-30" transform="translate(845.69986 0)"/>
    </g>
   </g>
   <g id="patch_7">
    <path d="M 196.156417 109.844158 
Q 159.398692 95.089033 123.678528 80.750402 
" style="fill: none; stroke: #666666; stroke-linecap: round"/>
    <path d="M 131.392848 89.45036 
L 123.678528 80.750402 
L 135.267087 79.798921 
" style="fill: none; stroke: #666666; stroke-linecap: round"/>
   </g>
   <g id="text_18">
    <g id="patch_8">
     <path d="M 154.787095 150.739735 
L 342.507095 150.739735 
Q 349.007095 150.739735 349.007095 144.239735 
L 349.007095 117.589735 
Q 349.007095 111.089735 342.507095 111.089735 
L 154.787095 111.089735 
Q 148.287095 111.089735 148.287095 117.589735 
L 148.287095 144.239735 
Q 148.287095 150.739735 154.787095 150.739735 
z
" style="fill: #ffffff; opacity: 0.9; stroke: #b0b0b0; stroke-linejoin: miter"/>
    </g>
    <!-- 起点: 10708.252 -->
    <g transform="translate(154.787095 138.28411) scale(0.26 -0.26)">
     <defs>
      <path id="NotoSansCJKjp-Regular-8d77" d="M 634 2477 
C 614 1338 544 307 166 -339 
C 282 -390 493 -506 576 -563 
C 762 -211 883 237 960 742 
C 1421 -134 2189 -346 3552 -346 
L 6016 -346 
C 6048 -205 6131 19 6214 128 
C 5811 109 3859 109 3546 115 
C 2944 115 2470 160 2099 301 
L 2099 1606 
L 3142 1606 
L 3142 2029 
L 2099 2029 
L 2099 2982 
L 3206 2982 
L 3206 3418 
L 1997 3418 
L 1997 4224 
L 3046 4224 
L 3046 4653 
L 1997 4653 
L 1997 5370 
L 1542 5370 
L 1542 4653 
L 474 4653 
L 474 4224 
L 1542 4224 
L 1542 3418 
L 307 3418 
L 307 2982 
L 1658 2982 
L 1658 544 
C 1382 762 1190 1088 1043 1562 
C 1062 1843 1082 2138 1088 2445 
L 634 2477 
z
M 3507 3302 
L 3507 1210 
C 3507 666 3686 525 4288 525 
C 4416 525 5274 525 5414 525 
C 5958 525 6099 762 6157 1670 
C 6029 1702 5830 1779 5728 1862 
C 5696 1088 5658 960 5382 960 
C 5184 960 4474 960 4333 960 
C 4026 960 3968 998 3968 1210 
L 3968 2874 
L 5331 2874 
L 5331 2714 
L 5792 2714 
L 5792 5069 
L 3443 5069 
L 3443 4646 
L 5331 4646 
L 5331 3302 
L 3507 3302 
z
" transform="scale(0.015625)"/>
      <path id="NotoSansCJKjp-Regular-70b9" d="M 1517 2976 
L 4864 2976 
L 4864 1830 
L 1517 1830 
L 1517 2976 
z
M 2176 819 
C 2259 403 2310 -134 2310 -454 
L 2797 -390 
C 2790 -83 2726 448 2630 858 
L 2176 819 
z
M 3501 813 
C 3686 416 3878 -122 3949 -442 
L 4416 -320 
C 4339 0 4134 518 3936 909 
L 3501 813 
z
M 4806 864 
C 5126 461 5485 -109 5632 -461 
L 6086 -269 
C 5926 83 5555 627 5235 1030 
L 4806 864 
z
M 1133 992 
C 934 518 608 0 269 -294 
L 704 -506 
C 1056 -166 1382 371 1587 870 
L 1133 992 
z
M 1062 3430 
L 1062 1382 
L 5344 1382 
L 5344 3430 
L 3392 3430 
L 3392 4243 
L 5824 4243 
L 5824 4698 
L 3392 4698 
L 3392 5376 
L 2912 5376 
L 2912 3430 
L 1062 3430 
z
" transform="scale(0.015625)"/>
      <path id="NotoSansCJKjp-Regular-3a" d="M 890 2496 
C 1120 2496 1312 2675 1312 2944 
C 1312 3206 1120 3392 890 3392 
C 653 3392 467 3206 467 2944 
C 467 2675 653 2496 890 2496 
z
M 890 -83 
C 1120 -83 1312 96 1312 358 
C 1312 627 1120 806 890 806 
C 653 806 467 627 467 358 
C 467 96 653 -83 890 -83 
z
" transform="scale(0.015625)"/>
      <path id="NotoSansCJKjp-Regular-20" transform="scale(0.015625)"/>
      <path id="NotoSansCJKjp-Regular-2e" d="M 890 -83 
C 1120 -83 1312 96 1312 358 
C 1312 627 1120 806 890 806 
C 653 806 467 627 467 358 
C 467 96 653 -83 890 -83 
z
" transform="scale(0.015625)"/>
     </defs>
     <use xlink:href="#NotoSansCJKjp-Regular-8d77"/>
     <use xlink:href="#NotoSansCJKjp-Regular-70b9" transform="translate(99.999985 0)"/>
     <use xlink:href="#NotoSansCJKjp-Regular-3a" transform="translate(199.999969 0)"/>
     <use xlink:href="#NotoSansCJKjp-Regular-20" transform="translate(227.799957 0)"/>
     <use xlink:href="#NotoSansCJKjp-Regular-31" transform="translate(250.199951 0)"/>
     <use xlink:href="#NotoSansCJKjp-Regular-30" transform="translate(305.699936 0)"/>
     <use xlink:href="#NotoSansCJKjp-Regular-37" transform="translate(361.199921 0)"/>
     <use xlink:href="#NotoSansCJKjp-Regular-30" transform="translate(416.699905 0)"/>
     <use xlink:href="#NotoSansCJKjp-Regular-38" transform="translate(472.19989 0)"/>
     <use xlink:href="#NotoSansCJKjp-Regular-2e" transform="translate(527.699875 0)"/>
     <use xlink:href="#NotoSansCJKjp-Regular-32" transform="translate(555.499863 0)"/>
     <use xlink:href="#NotoSansCJKjp-Regular-35" transform="translate(610.999847 0)"/>
     <use xlink:href="#NotoSansCJKjp-Regular-32" transform="translate(666.499832 0)"/>
    </g>
   </g>
   <g id="patch_9">
    <path d="M 582.121429 142.563406 
Q 551.205379 157.207034 521.299749 171.372069 
" style="fill: none; stroke: #666666; stroke-linecap: round"/>
    <path d="M 532.924667 171.619658 
L 521.299749 171.372069 
L 528.472771 162.220689 
" style="fill: none; stroke: #666666; stroke-linecap: round"/>
   </g>
   <g id="text_19">
    <g id="patch_10">
     <path d="M 552.48319 141.206154 
L 766.20319 141.206154 
Q 772.70319 141.206154 772.70319 134.706154 
L 772.70319 77.267279 
Q 772.70319 70.767279 766.20319 70.767279 
L 552.48319 70.767279 
Q 545.98319 70.767279 545.98319 77.267279 
L 545.98319 134.706154 
Q 545.98319 141.206154 552.48319 141.206154 
z
" style="fill: #ffffff; opacity: 0.9; stroke: #b0b0b0; stroke-linejoin: miter"/>
    </g>
    <!-- 最低点: 10231.223 -->
    <g transform="translate(552.48319 97.961654) scale(0.26 -0.26)">
     <defs>
      <path id="NotoSansCJKjp-Regular-6700" d="M 1600 4064 
L 4813 4064 
L 4813 3610 
L 1600 3610 
L 1600 4064 
z
M 1600 4832 
L 4813 4832 
L 4813 4384 
L 1600 4384 
L 1600 4832 
z
M 1139 5171 
L 1139 3270 
L 5293 3270 
L 5293 5171 
L 1139 5171 
z
M 2534 2509 
L 2534 2074 
L 1370 2074 
L 1370 2509 
L 2534 2509 
z
M 314 282 
L 358 -147 
L 2534 115 
L 2534 -512 
L 2995 -512 
L 2995 -109 
C 3091 -198 3200 -365 3251 -474 
C 3699 -320 4141 -96 4531 205 
C 4909 -115 5363 -358 5875 -506 
C 5939 -397 6061 -218 6163 -134 
C 5664 -6 5229 205 4858 486 
C 5280 883 5613 1389 5811 2010 
L 5517 2131 
L 5434 2112 
L 3219 2112 
L 3219 1722 
L 3776 1722 
L 3501 1638 
C 3674 1216 3910 832 4205 512 
C 3840 237 3418 32 2995 -90 
L 2995 2509 
L 6016 2509 
L 6016 2912 
L 371 2912 
L 371 2509 
L 928 2509 
L 928 339 
L 314 282 
z
M 3898 1722 
L 5222 1722 
C 5056 1363 4813 1050 4531 781 
C 4262 1050 4045 1370 3898 1722 
z
M 2534 1709 
L 2534 1261 
L 1370 1261 
L 1370 1709 
L 2534 1709 
z
M 2534 902 
L 2534 518 
L 1370 384 
L 1370 902 
L 2534 902 
z
" transform="scale(0.015625)"/>
      <path id="NotoSansCJKjp-Regular-4f4e" d="M 2093 83 
L 2093 -346 
L 4819 -346 
L 4819 83 
L 2093 83 
z
M 1901 902 
L 2010 448 
C 2650 563 3501 730 4307 883 
L 4282 1312 
C 3776 1216 3264 1126 2803 1043 
L 2803 2694 
L 4211 2694 
C 4429 992 4896 -262 5619 -262 
C 6029 -262 6195 -26 6259 845 
C 6144 890 5978 992 5875 1094 
C 5850 467 5792 205 5658 205 
C 5267 205 4877 1222 4685 2694 
L 6138 2694 
L 6138 3136 
L 4634 3136 
C 4595 3565 4570 4019 4563 4493 
C 5037 4582 5472 4685 5837 4794 
L 5466 5165 
C 4819 4941 3686 4742 2669 4621 
L 2336 4730 
L 2336 966 
L 1901 902 
z
M 2803 4230 
C 3219 4282 3661 4339 4090 4410 
C 4102 3974 4128 3546 4166 3136 
L 2803 3136 
L 2803 4230 
z
M 1690 5350 
C 1331 4378 736 3418 102 2797 
C 192 2688 326 2438 371 2323 
C 595 2554 813 2822 1024 3117 
L 1024 -499 
L 1485 -499 
L 1485 3840 
C 1734 4282 1965 4749 2144 5216 
L 1690 5350 
z
" transform="scale(0.015625)"/>
      <path id="NotoSansCJKjp-Regular-33" d="M 1683 -83 
C 2522 -83 3194 416 3194 1254 
C 3194 1901 2752 2310 2202 2445 
L 2202 2477 
C 2701 2650 3034 3034 3034 3603 
C 3034 4346 2458 4774 1664 4774 
C 1126 4774 710 4538 358 4218 
L 672 3846 
C 941 4115 1267 4301 1645 4301 
C 2138 4301 2438 4006 2438 3558 
C 2438 3053 2112 2662 1139 2662 
L 1139 2214 
C 2227 2214 2598 1843 2598 1274 
C 2598 736 2208 403 1645 403 
C 1114 403 762 659 486 941 
L 186 563 
C 493 224 954 -83 1683 -83 
z
" transform="scale(0.015625)"/>
     </defs>
     <use xlink:href="#NotoSansCJKjp-Regular-6700"/>
     <use xlink:href="#NotoSansCJKjp-Regular-4f4e" transform="translate(99.999985 0)"/>
     <use xlink:href="#NotoSansCJKjp-Regular-70b9" transform="translate(199.999969 0)"/>
     <use xlink:href="#NotoSansCJKjp-Regular-3a" transform="translate(299.999954 0)"/>
     <use xlink:href="#NotoSansCJKjp-Regular-20" transform="translate(327.799942 0)"/>
     <use xlink:href="#NotoSansCJKjp-Regular-31" transform="translate(350.199936 0)"/>
     <use xlink:href="#NotoSansCJKjp-Regular-30" transform="translate(405.699921 0)"/>
     <use xlink:href="#NotoSansCJKjp-Regular-32" transform="translate(461.199905 0)"/>
     <use xlink:href="#NotoSansCJKjp-Regular-33" transform="translate(516.69989 0)"/>
     <use xlink:href="#NotoSansCJKjp-Regular-31" transform="translate(572.199875 0)"/>
     <use xlink:href="#NotoSansCJKjp-Regular-2e" transform="translate(627.69986 0)"/>
     <use xlink:href="#NotoSansCJKjp-Regular-32" transform="translate(655.499847 0)"/>
     <use xlink:href="#NotoSansCJKjp-Regular-32" transform="translate(710.999832 0)"/>
     <use xlink:href="#NotoSansCJKjp-Regular-33" transform="translate(766.499817 0)"/>
    </g>
    <!-- 相对初始: 95.55% -->
    <g transform="translate(552.48319 128.750529) scale(0.26 -0.26)">
     <defs>
      <path id="NotoSansCJKjp-Regular-76f8" d="M 3494 3034 
L 5440 3034 
L 5440 1920 
L 3494 1920 
L 3494 3034 
z
M 3494 3469 
L 3494 4544 
L 5440 4544 
L 5440 3469 
L 3494 3469 
z
M 3494 1478 
L 5440 1478 
L 5440 365 
L 3494 365 
L 3494 1478 
z
M 3027 4998 
L 3027 -467 
L 3494 -467 
L 3494 -77 
L 5440 -77 
L 5440 -448 
L 5926 -448 
L 5926 4998 
L 3027 4998 
z
M 1370 5376 
L 1370 4006 
L 333 4006 
L 333 3546 
L 1312 3546 
C 1088 2662 634 1651 186 1120 
C 262 1005 384 813 435 685 
C 781 1126 1120 1837 1370 2573 
L 1370 -506 
L 1837 -506 
L 1837 2419 
C 2080 2106 2368 1709 2490 1498 
L 2784 1888 
C 2643 2061 2061 2746 1837 2970 
L 1837 3546 
L 2752 3546 
L 2752 4006 
L 1837 4006 
L 1837 5376 
L 1370 5376 
z
" transform="scale(0.015625)"/>
      <path id="NotoSansCJKjp-Regular-5bf9" d="M 3213 2522 
C 3514 2067 3802 1459 3904 1075 
L 4326 1286 
C 4224 1670 3917 2259 3603 2701 
L 3213 2522 
z
M 582 2899 
C 973 2547 1389 2131 1760 1709 
C 1376 890 870 269 288 -109 
C 403 -205 550 -384 627 -499 
C 1216 -77 1715 512 2106 1299 
C 2394 941 2630 602 2784 314 
L 3168 666 
C 2982 998 2682 1395 2330 1798 
C 2624 2534 2835 3411 2944 4448 
L 2630 4538 
L 2547 4518 
L 448 4518 
L 448 4064 
L 2419 4064 
C 2323 3373 2170 2752 1965 2202 
C 1626 2554 1267 2899 922 3200 
L 582 2899 
z
M 4896 5376 
L 4896 3834 
L 3085 3834 
L 3085 3373 
L 4896 3373 
L 4896 141 
C 4896 26 4851 -6 4742 -13 
C 4634 -13 4275 -19 3872 0 
C 3936 -147 4006 -371 4032 -506 
C 4576 -506 4902 -493 5094 -410 
C 5293 -326 5370 -179 5370 141 
L 5370 3373 
L 6138 3373 
L 6138 3834 
L 5370 3834 
L 5370 5376 
L 4896 5376 
z
" transform="scale(0.015625)"/>
      <path id="NotoSansCJKjp-Regular-521d" d="M 2650 4787 
L 2650 4333 
L 3738 4333 
C 3706 2656 3590 781 2176 -160 
C 2304 -243 2464 -397 2547 -518 
C 4026 531 4173 2509 4224 4333 
L 5523 4333 
C 5459 1421 5376 358 5178 128 
C 5114 45 5050 19 4928 19 
C 4787 19 4448 19 4064 58 
C 4154 -90 4211 -301 4218 -442 
C 4563 -461 4915 -467 5133 -442 
C 5350 -416 5491 -352 5626 -154 
C 5869 166 5939 1248 6010 4518 
C 6016 4589 6016 4787 6016 4787 
L 2650 4787 
z
M 2541 2995 
C 2432 2803 2221 2515 2054 2310 
L 1818 2541 
C 2157 3008 2445 3520 2650 4038 
L 2381 4224 
L 2291 4198 
L 1754 4198 
L 1754 5376 
L 1280 5376 
L 1280 4198 
L 346 4198 
L 346 3763 
L 2054 3763 
C 1632 2880 877 1997 166 1504 
C 250 1421 384 1197 435 1082 
C 717 1293 1005 1568 1280 1875 
L 1280 -512 
L 1754 -512 
L 1754 2099 
C 2016 1798 2336 1408 2477 1203 
L 2771 1568 
L 2278 2080 
C 2451 2266 2656 2509 2861 2739 
L 2541 2995 
z
" transform="scale(0.015625)"/>
      <path id="NotoSansCJKjp-Regular-59cb" d="M 3136 2086 
L 3136 -518 
L 3597 -518 
L 3597 -230 
L 5389 -230 
L 5389 -493 
L 5869 -493 
L 5869 2086 
L 3136 2086 
z
M 3597 211 
L 3597 1645 
L 5389 1645 
L 5389 211 
L 3597 211 
z
M 3942 5382 
C 3782 4723 3482 3808 3213 3181 
L 2694 3155 
L 2752 2682 
L 5632 2893 
C 5709 2726 5779 2573 5824 2438 
L 6240 2669 
C 6074 3136 5632 3853 5203 4384 
L 4819 4192 
C 5018 3923 5222 3616 5402 3315 
L 3686 3206 
C 3955 3808 4250 4608 4474 5267 
L 3942 5382 
z
M 1254 5382 
C 1178 4979 1082 4518 979 4051 
L 282 4051 
L 282 3603 
L 883 3603 
C 698 2803 499 2016 339 1466 
L 742 1254 
L 819 1536 
C 1043 1395 1267 1235 1485 1075 
C 1178 512 787 109 314 -141 
C 416 -237 550 -416 614 -531 
C 1120 -224 1536 198 1862 774 
C 2131 544 2368 320 2528 122 
L 2816 506 
C 2643 717 2374 960 2067 1197 
C 2381 1920 2579 2835 2662 4006 
L 2374 4070 
L 2291 4051 
L 1434 4051 
C 1536 4499 1632 4934 1709 5325 
L 1254 5382 
z
M 1331 3603 
L 2176 3603 
C 2093 2765 1926 2061 1683 1485 
C 1434 1658 1178 1818 928 1958 
C 1062 2464 1197 3034 1331 3603 
z
" transform="scale(0.015625)"/>
      <path id="NotoSansCJKjp-Regular-39" d="M 1504 -83 
C 2381 -83 3206 646 3206 2547 
C 3206 4038 2528 4774 1626 4774 
C 896 4774 282 4166 282 3251 
C 282 2285 794 1779 1574 1779 
C 1965 1779 2368 2003 2656 2349 
C 2611 896 2086 403 1485 403 
C 1178 403 896 538 691 762 
L 371 397 
C 634 122 992 -83 1504 -83 
z
M 2650 2842 
C 2336 2394 1984 2214 1670 2214 
C 1114 2214 832 2624 832 3251 
C 832 3898 1178 4320 1632 4320 
C 2227 4320 2586 3808 2650 2842 
z
" transform="scale(0.015625)"/>
      <path id="NotoSansCJKjp-Regular-25" d="M 1312 1818 
C 1958 1818 2381 2362 2381 3309 
C 2381 4243 1958 4774 1312 4774 
C 672 4774 250 4243 250 3309 
C 250 2362 672 1818 1312 1818 
z
M 1312 2176 
C 941 2176 691 2560 691 3309 
C 691 4058 941 4416 1312 4416 
C 1683 4416 1933 4058 1933 3309 
C 1933 2560 1683 2176 1312 2176 
z
M 1446 -83 
L 1843 -83 
L 4435 4774 
L 4038 4774 
L 1446 -83 
z
M 4582 -83 
C 5222 -83 5645 454 5645 1402 
C 5645 2342 5222 2874 4582 2874 
C 3942 2874 3520 2342 3520 1402 
C 3520 454 3942 -83 4582 -83 
z
M 4582 275 
C 4211 275 3955 653 3955 1402 
C 3955 2150 4211 2515 4582 2515 
C 4947 2515 5210 2150 5210 1402 
C 5210 653 4947 275 4582 275 
z
" transform="scale(0.015625)"/>
     </defs>
     <use xlink:href="#NotoSansCJKjp-Regular-76f8"/>
     <use xlink:href="#NotoSansCJKjp-Regular-5bf9" transform="translate(99.999985 0)"/>
     <use xlink:href="#NotoSansCJKjp-Regular-521d" transform="translate(199.999969 0)"/>
     <use xlink:href="#NotoSansCJKjp-Regular-59cb" transform="translate(299.999954 0)"/>
     <use xlink:href="#NotoSansCJKjp-Regular-3a" transform="translate(399.999939 0)"/>
     <use xlink:href="#NotoSansCJKjp-Regular-20" transform="translate(427.799927 0)"/>
     <use xlink:href="#NotoSansCJKjp-Regular-39" transform="translate(450.199921 0)"/>
     <use xlink:href="#NotoSansCJKjp-Regular-35" transform="translate(505.699905 0)"/>
     <use xlink:href="#NotoSansCJKjp-Regular-2e" transform="translate(561.19989 0)"/>
     <use xlink:href="#NotoSansCJKjp-Regular-35" transform="translate(588.999878 0)"/>
     <use xlink:href="#NotoSansCJKjp-Regular-35" transform="translate(644.499863 0)"/>
     <use xlink:href="#NotoSansCJKjp-Regular-25" transform="translate(699.999847 0)"/>
    </g>
   </g>
   <g id="text_20">
    <!-- b20 第1轮模拟退火：总线长变化曲线 -->
    <g transform="translate(267.737594 39.6) scale(0.26 -0.26)">
     <defs>
      <path id="NotoSansCJKjp-Regular-62" d="M 2118 -83 
C 2912 -83 3629 602 3629 1792 
C 3629 2867 3142 3565 2246 3565 
C 1856 3565 1472 3347 1152 3078 
L 1178 3699 
L 1178 5094 
L 589 5094 
L 589 0 
L 1056 0 
L 1107 358 
L 1133 358 
C 1434 83 1798 -83 2118 -83 
z
M 2022 410 
C 1792 410 1478 499 1178 768 
L 1178 2598 
C 1504 2906 1811 3072 2099 3072 
C 2765 3072 3021 2560 3021 1786 
C 3021 928 2598 410 2022 410 
z
" transform="scale(0.015625)"/>
      <path id="NotoSansCJKjp-Regular-7b2c" d="M 1133 2566 
C 1037 2061 877 1421 742 1005 
L 1216 934 
L 1280 1158 
L 2547 1158 
C 1965 640 1069 198 275 -26 
C 378 -115 518 -288 589 -410 
C 1414 -134 2342 390 2963 1005 
L 2963 -512 
L 3430 -512 
L 3430 1158 
L 5363 1158 
C 5299 576 5229 326 5139 237 
C 5082 192 5024 186 4909 186 
C 4794 179 4493 186 4179 218 
C 4256 96 4307 -90 4314 -224 
C 4646 -243 4960 -243 5120 -230 
C 5299 -218 5421 -179 5530 -70 
C 5690 90 5779 480 5869 1376 
C 5875 1440 5882 1568 5882 1568 
L 3430 1568 
L 3430 2163 
L 5510 2163 
L 5510 3622 
L 826 3622 
L 826 3213 
L 2963 3213 
L 2963 2566 
L 1133 2566 
z
M 1523 2163 
L 2963 2163 
L 2963 1568 
L 1382 1568 
L 1523 2163 
z
M 3430 3213 
L 5037 3213 
L 5037 2566 
L 3430 2566 
L 3430 3213 
z
M 1178 5408 
C 966 4838 614 4269 211 3898 
C 326 3834 518 3706 608 3635 
C 819 3846 1024 4128 1210 4435 
L 1446 4435 
C 1581 4179 1702 3878 1747 3674 
L 2170 3840 
C 2125 3994 2029 4224 1926 4435 
L 3110 4435 
L 3110 4819 
L 1421 4819 
C 1498 4973 1562 5126 1626 5286 
L 1178 5408 
z
M 3699 5408 
C 3488 4832 3104 4294 2650 3942 
C 2765 3885 2963 3744 3046 3667 
C 3283 3872 3507 4141 3706 4435 
L 4160 4435 
C 4352 4179 4544 3872 4621 3661 
L 5043 3827 
C 4973 4000 4826 4230 4672 4435 
L 6099 4435 
L 6099 4819 
L 3936 4819 
C 4019 4973 4090 5133 4154 5293 
L 3699 5408 
z
" transform="scale(0.015625)"/>
      <path id="NotoSansCJKjp-Regular-6a21" d="M 3021 2669 
L 5248 2669 
L 5248 2208 
L 3021 2208 
L 3021 2669 
z
M 3021 3469 
L 5248 3469 
L 5248 3021 
L 3021 3021 
L 3021 3469 
z
M 4685 5376 
L 4685 4845 
L 3699 4845 
L 3699 5376 
L 3245 5376 
L 3245 4845 
L 2304 4845 
L 2304 4435 
L 3245 4435 
L 3245 3955 
L 3699 3955 
L 3699 4435 
L 4685 4435 
L 4685 3955 
L 5152 3955 
L 5152 4435 
L 6048 4435 
L 6048 4845 
L 5152 4845 
L 5152 5376 
L 4685 5376 
z
M 2573 3834 
L 2573 1850 
L 3878 1850 
C 3853 1658 3827 1485 3782 1318 
L 2176 1318 
L 2176 909 
L 3642 909 
C 3398 416 2938 77 1997 -128 
C 2086 -224 2208 -403 2253 -512 
C 3366 -243 3885 218 4141 896 
C 4461 192 5056 -288 5888 -512 
C 5952 -390 6080 -211 6182 -115 
C 5459 38 4909 390 4602 909 
L 6035 909 
L 6035 1318 
L 4262 1318 
C 4294 1485 4326 1664 4346 1850 
L 5715 1850 
L 5715 3834 
L 2573 3834 
z
M 1120 5376 
L 1120 4141 
L 320 4141 
L 320 3693 
L 1120 3693 
L 1120 3686 
C 947 2816 576 1798 205 1261 
C 288 1146 403 934 461 794 
C 704 1171 934 1754 1120 2381 
L 1120 -506 
L 1581 -506 
L 1581 2790 
C 1754 2451 1952 2042 2035 1830 
L 2342 2176 
C 2234 2374 1747 3174 1581 3424 
L 1581 3693 
L 2240 3693 
L 2240 4141 
L 1581 4141 
L 1581 5376 
L 1120 5376 
z
" transform="scale(0.015625)"/>
      <path id="NotoSansCJKjp-Regular-62df" d="M 3494 4134 
C 3789 3693 4077 3104 4179 2726 
L 4589 2918 
C 4480 3296 4173 3866 3878 4301 
L 3494 4134 
z
M 2675 5075 
L 2675 1158 
C 2413 1043 2176 934 1978 858 
L 2195 397 
C 2765 672 3488 1037 4173 1382 
L 4058 1798 
L 3130 1363 
L 3130 5075 
L 2675 5075 
z
M 5248 5126 
C 5229 2112 4922 614 2701 -102 
C 2803 -205 2957 -429 3008 -531 
C 3904 -198 4506 243 4915 851 
C 5254 378 5587 -154 5741 -518 
L 6163 -224 
C 5978 186 5562 794 5165 1286 
C 5600 2208 5715 3443 5741 5133 
L 5248 5126 
z
M 1178 5376 
L 1178 4083 
L 294 4083 
L 294 3629 
L 1178 3629 
L 1178 2259 
L 179 1984 
L 320 1517 
L 1178 1773 
L 1178 51 
C 1178 -38 1139 -64 1056 -70 
C 973 -70 704 -70 416 -64 
C 474 -192 544 -384 563 -499 
C 986 -499 1242 -486 1414 -416 
C 1574 -339 1638 -211 1638 58 
L 1638 1914 
L 2419 2150 
L 2355 2598 
L 1638 2387 
L 1638 3629 
L 2336 3629 
L 2336 4083 
L 1638 4083 
L 1638 5376 
L 1178 5376 
z
" transform="scale(0.015625)"/>
      <path id="NotoSansCJKjp-Regular-9000" d="M 442 4896 
C 858 4614 1338 4186 1542 3872 
L 1920 4186 
C 1696 4499 1216 4915 794 5184 
L 442 4896 
z
M 5632 2739 
C 5382 2509 4966 2202 4621 1978 
C 4474 2202 4358 2438 4262 2701 
L 5504 2701 
L 5504 5101 
L 2573 5101 
L 2573 1011 
L 2131 915 
L 2214 461 
C 2810 608 3597 806 4346 998 
L 4307 1421 
L 3040 1120 
L 3040 2701 
L 3834 2701 
C 4173 1613 4813 794 5798 416 
C 5869 544 6003 730 6112 826 
C 5594 992 5165 1286 4838 1683 
C 5203 1888 5651 2182 6010 2458 
L 5632 2739 
z
M 3040 4685 
L 5037 4685 
L 5037 4102 
L 3040 4102 
L 3040 4685 
z
M 3040 3117 
L 3040 3725 
L 5037 3725 
L 5037 3117 
L 3040 3117 
z
M 1677 2848 
L 314 2848 
L 314 2400 
L 1210 2400 
L 1210 768 
C 890 499 518 230 230 32 
L 480 -461 
C 826 -173 1152 102 1459 378 
C 1869 -128 2445 -358 3283 -390 
C 3994 -416 5318 -403 6016 -371 
C 6035 -224 6118 6 6176 115 
C 5414 64 3981 45 3283 77 
C 2541 102 1978 326 1677 794 
L 1677 2848 
z
" transform="scale(0.015625)"/>
      <path id="NotoSansCJKjp-Regular-706b" d="M 1286 4077 
C 1190 3366 966 2662 448 2278 
L 864 1997 
C 1434 2432 1651 3213 1766 3974 
L 1286 4077 
z
M 5306 4090 
C 5088 3526 4691 2758 4371 2285 
L 4774 2093 
C 5107 2554 5517 3283 5824 3885 
L 5306 4090 
z
M 3174 5286 
L 2912 5286 
L 2912 3206 
C 2912 2464 2470 704 314 -115 
C 416 -224 576 -416 640 -518 
C 2458 230 3046 1651 3168 2278 
C 3296 1658 3923 186 5779 -518 
C 5850 -384 6003 -186 6106 -77 
C 3885 710 3430 2477 3430 3213 
L 3430 5286 
L 3174 5286 
z
" transform="scale(0.015625)"/>
      <path id="NotoSansCJKjp-Regular-53d8" d="M 1427 4026 
C 1235 3571 915 3110 563 2803 
C 672 2746 851 2618 941 2541 
C 1280 2880 1645 3392 1856 3910 
L 1427 4026 
z
M 4422 3782 
C 4813 3418 5280 2880 5510 2534 
L 5888 2784 
C 5664 3117 5197 3629 4781 3987 
L 4422 3782 
z
M 2765 5318 
C 2880 5139 3008 4909 3091 4723 
L 448 4723 
L 448 4294 
L 2221 4294 
L 2221 2349 
L 2701 2349 
L 2701 4294 
L 3686 4294 
L 3686 2355 
L 4166 2355 
L 4166 4294 
L 5952 4294 
L 5952 4723 
L 3629 4723 
C 3546 4922 3373 5222 3226 5434 
L 2765 5318 
z
M 851 2170 
L 851 1741 
L 1363 1741 
C 1702 1235 2163 819 2714 480 
C 1997 192 1171 6 333 -102 
C 416 -205 531 -403 570 -525 
C 1491 -378 2400 -141 3194 218 
C 3949 -154 4851 -397 5843 -525 
C 5901 -397 6016 -211 6118 -102 
C 5216 -6 4390 186 3686 474 
C 4352 851 4902 1344 5267 1978 
L 4960 2189 
L 4877 2170 
L 851 2170 
z
M 1894 1741 
L 4538 1741 
C 4211 1318 3744 973 3200 698 
C 2662 979 2221 1325 1894 1741 
z
" transform="scale(0.015625)"/>
      <path id="NotoSansCJKjp-Regular-5316" d="M 5517 4160 
C 5050 3725 4314 3232 3597 2829 
L 3597 5222 
L 3110 5222 
L 3110 480 
C 3110 -230 3315 -416 3987 -416 
C 4134 -416 5146 -416 5306 -416 
C 5978 -416 6112 -51 6189 998 
C 6048 1024 5856 1114 5734 1203 
C 5690 269 5638 32 5280 32 
C 5069 32 4192 32 4026 32 
C 3667 32 3597 109 3597 467 
L 3597 2342 
C 4390 2758 5254 3251 5862 3750 
L 5517 4160 
z
M 2003 5280 
C 1581 4262 870 3290 134 2675 
C 224 2560 371 2310 422 2189 
C 710 2451 998 2758 1267 3104 
L 1267 -499 
L 1747 -499 
L 1747 3776 
C 2022 4205 2272 4659 2470 5120 
L 2003 5280 
z
" transform="scale(0.015625)"/>
      <path id="NotoSansCJKjp-Regular-66f2" d="M 3718 5312 
L 3718 4096 
L 2637 4096 
L 2637 5312 
L 2163 5312 
L 2163 4096 
L 627 4096 
L 627 -512 
L 1082 -512 
L 1082 -102 
L 5331 -102 
L 5331 -486 
L 5798 -486 
L 5798 4096 
L 4186 4096 
L 4186 5312 
L 3718 5312 
z
M 1082 365 
L 1082 1779 
L 2163 1779 
L 2163 365 
L 1082 365 
z
M 5331 365 
L 4186 365 
L 4186 1779 
L 5331 1779 
L 5331 365 
z
M 2637 365 
L 2637 1779 
L 3718 1779 
L 3718 365 
L 2637 365 
z
M 1082 2240 
L 1082 3629 
L 2163 3629 
L 2163 2240 
L 1082 2240 
z
M 5331 2240 
L 4186 2240 
L 4186 3629 
L 5331 3629 
L 5331 2240 
z
M 2637 2240 
L 2637 3629 
L 3718 3629 
L 3718 2240 
L 2637 2240 
z
" transform="scale(0.015625)"/>
     </defs>
     <use xlink:href="#NotoSansCJKjp-Regular-62"/>
     <use xlink:href="#NotoSansCJKjp-Regular-32" transform="translate(61.799988 0)"/>
     <use xlink:href="#NotoSansCJKjp-Regular-30" transform="translate(117.299973 0)"/>
     <use xlink:href="#NotoSansCJKjp-Regular-20" transform="translate(172.799957 0)"/>
     <use xlink:href="#NotoSansCJKjp-Regular-7b2c" transform="translate(195.199951 0)"/>
     <use xlink:href="#NotoSansCJKjp-Regular-31" transform="translate(295.199936 0)"/>
     <use xlink:href="#NotoSansCJKjp-Regular-8f6e" transform="translate(350.699921 0)"/>
     <use xlink:href="#NotoSansCJKjp-Regular-6a21" transform="translate(450.699905 0)"/>
     <use xlink:href="#NotoSansCJKjp-Regular-62df" transform="translate(550.69989 0)"/>
     <use xlink:href="#NotoSansCJKjp-Regular-9000" transform="translate(650.699875 0)"/>
     <use xlink:href="#NotoSansCJKjp-Regular-706b" transform="translate(750.69986 0)"/>
     <use xlink:href="#NotoSansCJKjp-Regular-ff1a" transform="translate(850.699844 0)"/>
     <use xlink:href="#NotoSansCJKjp-Regular-603b" transform="translate(950.699829 0)"/>
     <use xlink:href="#NotoSansCJKjp-Regular-7ebf" transform="translate(1050.699814 0)"/>
     <use xlink:href="#NotoSansCJKjp-Regular-957f" transform="translate(1150.699799 0)"/>
     <use xlink:href="#NotoSansCJKjp-Regular-53d8" transform="translate(1250.699783 0)"/>
     <use xlink:href="#NotoSansCJKjp-Regular-5316" transform="translate(1350.699768 0)"/>
     <use xlink:href="#NotoSansCJKjp-Regular-66f2" transform="translate(1450.699753 0)"/>
     <use xlink:href="#NotoSansCJKjp-Regular-7ebf" transform="translate(1550.699738 0)"/>
    </g>
   </g>
   <g id="PathCollection_1">
    <defs>
     <path id="m87bc52db4d" d="M 0 4.1833 
C 1.109424 4.1833 2.173559 3.742521 2.95804 2.95804 
C 3.742521 2.173559 4.1833 1.109424 4.1833 0 
C 4.1833 -1.109424 3.742521 -2.173559 2.95804 -2.95804 
C 2.173559 -3.742521 1.109424 -4.1833 0 -4.1833 
C -1.109424 -4.1833 -2.173559 -3.742521 -2.95804 -2.95804 
C -3.742521 -2.173559 -4.1833 -1.109424 -4.1833 0 
C -4.1833 1.109424 -3.742521 2.173559 -2.95804 2.95804 
C -2.173559 3.742521 -1.109424 4.1833 0 4.1833 
z
" style="stroke: #a04000"/>
    </defs>
    <g clip-path="url(#p8c6352e137)">
     <use xlink:href="#m87bc52db4d" x="120.787095" y="79.589735" style="fill: #a04000; stroke: #a04000"/>
    </g>
   </g>
   <g id="PathCollection_2">
    <defs>
     <path id="m8a91266f22" d="M 0 4.1833 
C 1.109424 4.1833 2.173559 3.742521 2.95804 2.95804 
C 3.742521 2.173559 4.1833 1.109424 4.1833 0 
C 4.1833 -1.109424 3.742521 -2.173559 2.95804 -2.95804 
C 2.173559 -3.742521 1.109424 -4.1833 0 -4.1833 
C -1.109424 -4.1833 -2.173559 -3.742521 -2.95804 -2.95804 
C -3.742521 -2.173559 -4.1833 -1.109424 -4.1833 0 
C -4.1833 1.109424 -3.742521 2.173559 -2.95804 2.95804 
C -2.173559 3.742521 -1.109424 4.1833 0 4.1833 
z
" style="stroke: #922b21"/>
    </defs>
    <g clip-path="url(#p8c6352e137)">
     <use xlink:href="#m8a91266f22" x="518.48319" y="172.706154" style="fill: #922b21; stroke: #922b21"/>
    </g>
   </g>
   <g id="legend_1">
    <g id="line2d_30">
     <path d="M 876.74038 72.826875 
L 894.74038 72.826875 
L 912.74038 72.826875 
" style="fill: none; stroke: #e67e22; stroke-width: 4.8; stroke-linecap: square"/>
     <g>
      <use xlink:href="#m2bac95783a" x="894.74038" y="72.826875" style="fill: #e67e22; stroke: #e67e22"/>
     </g>
    </g>
    <g id="text_21">
     <!-- 总线长 -->
     <g transform="translate(927.14038 79.126875) scale(0.18 -0.18)">
      <use xlink:href="#NotoSansCJKjp-Regular-603b"/>
      <use xlink:href="#NotoSansCJKjp-Regular-7ebf" transform="translate(99.999985 0)"/>
      <use xlink:href="#NotoSansCJKjp-Regular-957f" transform="translate(199.999969 0)"/>
     </g>
    </g>
   </g>
  </g>
 </g>
 <defs>
  <clipPath id="p8c6352e137">
   <rect x="102.71" y="57.6" width="759.238" height="130.12"/>
  </clipPath>
 </defs>
</svg>
